<svg xmlns="http://www.w3.org/2000/svg" viewBox="0 0 900 420"><defs><linearGradient id="g" x1="0" y1="0" x2="1" y2="1"><stop stop-color="#294522"/><stop offset="1" stop-color="#0b1110"/></linearGradient></defs><rect width="900" height="420" fill="url(#g)"/><circle cx="190" cy="150" r="55" fill="#f0c09c"/><circle cx="340" cy="135" r="50" fill="#edbd99"/><circle cx="250" cy="235" r="42" fill="#f1c29e"/><circle cx="405" cy="240" r="40" fill="#f1c29e"/><path d="M95 420c30-135 225-135 260 0" fill="#4b5960"/><path d="M250 420c25-135 220-135 250 0" fill="#5c696f"/><path d="M195 420c15-90 115-90 130 0" fill="#e9e9e9"/><path d="M350 420c20-90 115-90 130 0" fill="#e9e9e9"/><g fill="#142413" opacity=".6"><circle cx="730" cy="100" r="80"/><circle cx="810" cy="180" r="90"/><circle cx="660" cy="235" r="110"/></g><rect width="900" height="420" fill="#000" opacity=".08"/></svg>
