<svg xmlns="http://www.w3.org/2000/svg" viewBox="0 0 1400 720"><defs><linearGradient id="g" x1="0" x2="1"><stop stop-color="#081018"/><stop offset="1" stop-color="#263746"/></linearGradient><filter id="s"><feGaussianBlur stdDeviation="2"/></filter></defs><rect width="1400" height="720" fill="url(#g)"/><rect y="430" width="1400" height="290" fill="#07100b"/><g opacity=".55"><circle cx="180" cy="110" r="70" fill="#e9f4ff" opacity=".15"/><rect y="0" width="1400" height="720" fill="#000" opacity=".15"/></g><g transform="translate(450 170)"><polygon points="30,230 370,0 720,230" fill="#1d2730" stroke="#44515a" stroke-width="4"/><rect x="120" y="220" width="520" height="260" fill="#202931" stroke="#4a5560" stroke-width="4"/><polygon points="105,220 370,45 655,220" fill="#2d3740"/><rect x="210" y="285" width="95" height="90" fill="#f6a34e" opacity=".75"/><rect x="450" y="285" width="95" height="90" fill="#f6a34e" opacity=".75"/><rect x="330" y="335" width="105" height="145" fill="#17191b"/><rect x="308" y="385" width="170" height="35" fill="#2d2f31"/><rect x="90" y="455" width="600" height="25" fill="#6f5b49"/><g stroke="#d08133" stroke-width="6" opacity=".55"><line x1="240" y1="375" x2="240" y2="285"/><line x1="500" y1="375" x2="500" y2="285"/></g></g><g fill="#1d3320" opacity=".9"><ellipse cx="780" cy="580" rx="220" ry="45"/><ellipse cx="1100" cy="560" rx="260" ry="60"/><ellipse cx="500" cy="590" rx="180" ry="40"/></g><g stroke="#223a22" stroke-width="10" opacity=".8"><path d="M1110 520 C1140 430 1170 350 1200 230"/><path d="M1260 540 C1280 440 1305 350 1340 230"/></g></svg>
